<svg xmlns="http://www.w3.org/2000/svg" viewBox="-190 -300 380 400">
  <title>Kenji: head, back</title>
  <defs>
    <clipPath id="c1"><path d="M -300 -600 L 300 -600 L 300 -66 C 60 -58 30 -50 0 -50 C -30 -50 -60 -58 -300 -66 Z"/></clipPath>
  </defs>
  <g transform="translate(-84 -104) scale(-1 1)">
    <path d="M 0 -17 C 17 -21 25 -3 20 11 C 16 21 5 23 -2 17 Z" fill="#E8B98E" stroke="#1D1A24" stroke-width="3.4"/>
    <path d="M 4 -7 C 12 -6 13 4 7 9" fill="none" stroke="#1D1A24" stroke-width="2.55"/>
  </g>
  <g transform="translate(84 -104) scale(1 1)">
    <path d="M 0 -17 C 17 -21 25 -3 20 11 C 16 21 5 23 -2 17 Z" fill="#E8B98E" stroke="#1D1A24" stroke-width="3.4"/>
    <path d="M 4 -7 C 12 -6 13 4 7 9" fill="none" stroke="#1D1A24" stroke-width="2.55"/>
  </g>
  <path d="M -30 0 C -36 -30 -82 -52 -86 -104 C -90 -160 -60 -196 0 -196 C 60 -196 90 -160 86 -104 C 82 -52 36 -30 30 0 Z" fill="#E8B98E" stroke="#1D1A24" stroke-width="3.4"/>
  <g clip-path="url(#c1)">
    <path d="M -32.4 8.8 C -38.88 -23.6 -88.56 -47.36 -92.88 -103.52 C -97.2 -164 -64.8 -202.88 0 -202.88 C 64.8 -202.88 97.2 -164 92.88 -103.52 C 88.56 -47.36 38.88 -23.6 32.4 8.8 Z" fill="#16161C" stroke="#1D1A24" stroke-width="3.4"/>
  </g>
</svg>
