<svg xmlns="http://www.w3.org/2000/svg" viewBox="-190 -300 380 400">
  <title>Dana: head, 34</title>
  <defs>
    <clipPath id="c1"><path d="M -300 -600 L 300 -600 L 300 -120 L 96 -120 C 82 -150 60 -140 24 -150 C -8 -146 -26 -150 -32 -126 C -40 -100 -50 -16 -70 -30 L -300 -30 Z"/></clipPath>
  </defs>
  <path d="M 20 -4 C 62 -6 86 -44 88 -104 C 90 -162 56 -196 -4 -196 C -64 -196 -92 -160 -88 -104 C -84 -46 -34 -4 20 -4 Z" data-morph="jaw" data-morph-at="30" data-morph-d="M 20 26 C 62 24 86 -29 88 -104 C 90 -162 56 -196 -4 -196 C -64 -196 -92 -160 -88 -104 C -84 -31 -34 26 20 26 Z" fill="#D9A077" stroke="#1D1A24" stroke-width="3.4"/>
  <g transform="translate(-64 -104) scale(-1 1)">
    <path d="M 0 -17 C 17 -21 25 -3 20 11 C 16 21 5 23 -2 17 Z" fill="#D9A077" stroke="#1D1A24" stroke-width="3.4"/>
    <path d="M 4 -7 C 12 -6 13 4 7 9" fill="none" stroke="#1D1A24" stroke-width="2.55"/>
  </g>
  <g transform="translate(50 -104) scale(0.74 1)" data-feature="eye" data-side="1" data-look="0.35"/>
  <g transform="translate(-6 -104) scale(0.96 1)" data-feature="eye" data-side="-1" data-look="0.35"/>
  <g transform="translate(50 -140) scale(0.72 1)" data-feature="brow" data-side="1"/>
  <g transform="translate(-6 -140) scale(0.95 1)" data-feature="brow" data-side="-1"/>
  <path d="M 70 -90 C 92 -80 98 -66 82 -61 C 76 -60 71 -62 68 -65 L 66 -80 Z" fill="#D9A077" stroke="none"/>
  <path d="M 70 -90 C 92 -80 98 -66 82 -61 C 76 -60 71 -62 68 -65" fill="none" stroke="#1D1A24" stroke-width="3.4"/>
  <g data-feature="mouth" data-x="42" data-y="-44" data-sx="0.84" data-drop="0.35"/>
  <g clip-path="url(#c1)">
    <path d="M 23 11.9 C 71.3 9.6 98.9 -34.1 101.2 -103.1 C 103.5 -169.8 64.4 -208.9 -4.6 -208.9 C -73.6 -208.9 -105.8 -167.5 -101.2 -103.1 C -96.6 -36.4 -39.1 11.9 23 11.9 Z" fill="#2B1D16" stroke="#1D1A24" stroke-width="3.4"/>
  </g>
  <path d="M -48 -154 C -18 -128 42 -128 94 -156 L 82 -180 L -38 -180 Z" fill="#2B1D16" stroke="none"/>
  <g transform="translate(50 -104) scale(0.74 1)">
    <path d="M -31 0 C -31 -42 31 -42 31 0 C 31 42 -31 42 -31 0 Z" fill="none" stroke="#2B2B35" stroke-width="3.06"/>
  </g>
  <g transform="translate(-6 -104) scale(0.96 1)">
    <path d="M -31 0 C -31 -42 31 -42 31 0 C 31 42 -31 42 -31 0 Z" fill="none" stroke="#2B2B35" stroke-width="3.06"/>
  </g>
  <path d="M 24 -110 Q 30 -116 36 -110" fill="none" stroke="#2B2B35" stroke-width="2.72"/>
  <path d="M -36 -108 L -60 -104" fill="none" stroke="#2B2B35" stroke-width="2.72"/>
</svg>
